<svg xmlns="http://www.w3.org/2000/svg" version="1.1" xmlns:xlink="http://www.w3.org/1999/xlink" xmlns:svgjs="http://svgjs.dev/svgjs" width="1000" height="143" viewBox="0 0 1000 143"><g transform="matrix(1,0,0,1,-0.6060606060606233,-0.6236090225564084)"><svg viewBox="0 0 396 57" data-background-color="#ffffff" preserveAspectRatio="xMidYMid meet" height="143" width="1000" xmlns="http://www.w3.org/2000/svg" xmlns:xlink="http://www.w3.org/1999/xlink"><g id="tight-bounds" transform="matrix(1,0,0,1,0.2400000000000091,0.248571428571438)"><svg viewBox="0 0 395.52 56.502857142857145" height="56.502857142857145" width="395.52"><g><svg viewBox="0 0 395.52 56.502857142857145" height="56.502857142857145" width="395.52"><g><svg viewBox="0 0 395.52 56.502857142857145" height="56.502857142857145" width="395.52"><g id="textblocktransform"><svg viewBox="0 0 395.52 56.502857142857145" height="56.502857142857145" width="395.52" id="textblock"><g><svg viewBox="0 0 395.52 56.502857142857145" height="56.502857142857145" width="395.52"><g transform="matrix(1,0,0,1,0,0)"><svg width="395.52" viewBox="1 -39.05 278.93 39.849999999999994" height="56.502857142857145" data-palette-color="#51e83c"><path d="M16.25 0L15.2 0Q12.55 0 10.48-1.25 8.4-2.5 7.2-4.67 6-6.85 6-9.65L6-9.65 6-34.1Q6-34.95 6.53-35.5 7.05-36.05 7.9-36.05L7.9-36.05Q8.75-36.05 9.3-35.5 9.85-34.95 9.85-34.1L9.85-34.1 9.85-9.65Q9.85-7.1 11.35-5.48 12.85-3.85 15.2-3.85L15.2-3.85 16.55-3.85Q17.35-3.85 17.85-3.3 18.35-2.75 18.35-1.9L18.35-1.9Q18.35-1.05 17.75-0.53 17.15 0 16.25 0L16.25 0ZM15.5-23L2.75-23Q2-23 1.5-23.48 1-23.95 1-24.65L1-24.65Q1-25.4 1.5-25.88 2-26.35 2.75-26.35L2.75-26.35 15.5-26.35Q16.25-26.35 16.75-25.88 17.25-25.4 17.25-24.65L17.25-24.65Q17.25-23.95 16.75-23.48 16.25-23 15.5-23L15.5-23ZM28.4-16.85L26.2-16.85Q26.35-19.95 27.82-22.4 29.3-24.85 31.67-26.25 34.05-27.65 36.95-27.65L36.95-27.65Q39.25-27.65 40.5-27 41.75-26.35 41.45-25.1L41.45-25.1Q41.25-24.35 40.77-24.1 40.3-23.85 39.62-23.9 38.95-23.95 38.1-24L38.1-24Q35.3-24.25 33.12-23.43 30.95-22.6 29.67-20.9 28.4-19.2 28.4-16.85L28.4-16.85ZM26.5 0L26.5 0Q25.6 0 25.1-0.5 24.6-1 24.6-1.9L24.6-1.9 24.6-25.45Q24.6-26.35 25.1-26.85 25.6-27.35 26.5-27.35L26.5-27.35Q27.4-27.35 27.9-26.85 28.4-26.35 28.4-25.45L28.4-25.45 28.4-1.9Q28.4-1 27.9-0.5 27.4 0 26.5 0ZM57.55 0.25L57.55 0.25Q53.7 0.25 50.65-1.58 47.6-3.4 45.82-6.55 44.05-9.7 44.05-13.65L44.05-13.65Q44.05-17.65 45.87-20.8 47.7-23.95 50.85-25.78 54-27.6 57.95-27.6L57.95-27.6Q61.9-27.6 65.02-25.78 68.15-23.95 69.97-20.8 71.8-17.65 71.84-13.65L71.84-13.65 70.3-12.45Q70.3-8.85 68.62-5.98 66.95-3.1 64.07-1.43 61.2 0.25 57.55 0.25ZM57.95-3.25L57.95-3.25Q60.85-3.25 63.12-4.6 65.4-5.95 66.72-8.33 68.05-10.7 68.05-13.65L68.05-13.65Q68.05-16.65 66.72-19 65.4-21.35 63.12-22.73 60.85-24.1 57.95-24.1L57.95-24.1Q55.1-24.1 52.8-22.73 50.5-21.35 49.15-19 47.8-16.65 47.8-13.65L47.8-13.65Q47.8-10.7 49.15-8.33 50.5-5.95 52.8-4.6 55.1-3.25 57.95-3.25ZM69.9 0L69.9 0Q69.05 0 68.5-0.53 67.95-1.05 67.95-1.9L67.95-1.9 67.95-10.45 68.9-14.4 71.84-13.65 71.84-1.9Q71.84-1.05 71.3-0.53 70.75 0 69.9 0ZM87.19 0L87.19 0Q85.99 0 85.39-1.3L85.39-1.3 74.29-24.85Q73.99-25.5 74.24-26.15 74.49-26.8 75.24-27.15L75.24-27.15Q75.94-27.5 76.59-27.25 77.24-27 77.59-26.35L77.59-26.35 88.24-3.3 86.19-3.3 96.69-26.35Q96.99-27.05 97.72-27.28 98.44-27.5 99.14-27.2L99.14-27.2Q99.84-26.85 100.09-26.18 100.34-25.5 100.04-24.9L100.04-24.9 89.09-1.3Q88.49 0 87.19 0ZM116.89 0.25L116.89 0.25Q112.84 0.25 109.72-1.53 106.59-3.3 104.82-6.45 103.04-9.6 103.04-13.65L103.04-13.65Q103.04-17.75 104.72-20.88 106.39-24 109.34-25.8 112.29-27.6 116.14-27.6L116.14-27.6Q119.94-27.6 122.77-25.88 125.59-24.15 127.14-21.1 128.69-18.05 128.69-14.15L128.69-14.15Q128.69-13.35 128.19-12.88 127.69-12.4 126.89-12.4L126.89-12.4 105.64-12.4 105.64-15.6 127.29-15.6 125.14-14.05Q125.19-16.95 124.09-19.25 122.99-21.55 120.97-22.85 118.94-24.15 116.14-24.15L116.14-24.15Q113.29-24.15 111.14-22.8 108.99-21.45 107.82-19.07 106.64-16.7 106.64-13.65L106.64-13.65Q106.64-10.6 107.97-8.25 109.29-5.9 111.59-4.55 113.89-3.2 116.89-3.2L116.89-3.2Q118.69-3.2 120.52-3.83 122.34-4.45 123.44-5.4L123.44-5.4Q123.99-5.85 124.69-5.88 125.39-5.9 125.89-5.5L125.89-5.5Q126.54-4.9 126.57-4.2 126.59-3.5 125.99-3L125.99-3Q124.34-1.6 121.79-0.68 119.24 0.25 116.89 0.25ZM141.74 0L141.09 0Q139.09 0 137.51-1.1 135.94-2.2 135.06-4.15 134.19-6.1 134.19-8.65L134.19-8.65 134.19-37.15Q134.19-38 134.71-38.53 135.24-39.05 136.09-39.05L136.09-39.05Q136.94-39.05 137.46-38.53 137.99-38 137.99-37.15L137.99-37.15 137.99-8.65Q137.99-6.5 138.86-5.15 139.74-3.8 141.09-3.8L141.09-3.8 142.34-3.8Q143.09-3.8 143.54-3.28 143.99-2.75 143.99-1.9L143.99-1.9Q143.99-1.05 143.36-0.53 142.74 0 141.74 0L141.74 0ZM163.13 0.25L163.13 0.25Q159.23 0.25 156.11-1.55 152.98-3.35 151.16-6.48 149.34-9.6 149.28-13.5L149.28-13.5 149.28-37.1Q149.28-38 149.81-38.53 150.34-39.05 151.23-39.05L151.23-39.05Q152.09-39.05 152.61-38.53 153.13-38 153.13-37.1L153.13-37.1 153.13-22.4Q154.78-24.75 157.51-26.18 160.23-27.6 163.59-27.6L163.59-27.6Q167.44-27.6 170.49-25.78 173.53-23.95 175.31-20.8 177.09-17.65 177.09-13.7L177.09-13.7Q177.09-9.7 175.26-6.55 173.44-3.4 170.28-1.58 167.13 0.25 163.13 0.25ZM163.13-3.25L163.13-3.25Q166.03-3.25 168.34-4.63 170.63-6 171.96-8.35 173.28-10.7 173.28-13.7L173.28-13.7Q173.28-16.65 171.96-19.03 170.63-21.4 168.34-22.75 166.03-24.1 163.13-24.1L163.13-24.1Q160.28-24.1 157.98-22.75 155.69-21.4 154.38-19.03 153.09-16.65 153.09-13.7L153.09-13.7Q153.09-10.7 154.38-8.35 155.69-6 157.98-4.63 160.28-3.25 163.13-3.25ZM196.68 0.25L196.68 0.25Q192.83 0.25 189.78-1.58 186.73-3.4 184.96-6.55 183.18-9.7 183.18-13.65L183.18-13.65Q183.18-17.65 185.01-20.8 186.83-23.95 189.98-25.78 193.13-27.6 197.08-27.6L197.08-27.6Q201.03-27.6 204.16-25.78 207.28-23.95 209.11-20.8 210.93-17.65 210.98-13.65L210.98-13.65 209.43-12.45Q209.43-8.85 207.76-5.98 206.08-3.1 203.21-1.43 200.33 0.25 196.68 0.25ZM197.08-3.25L197.08-3.25Q199.98-3.25 202.26-4.6 204.53-5.95 205.86-8.33 207.18-10.7 207.18-13.65L207.18-13.65Q207.18-16.65 205.86-19 204.53-21.35 202.26-22.73 199.98-24.1 197.08-24.1L197.08-24.1Q194.23-24.1 191.93-22.73 189.63-21.35 188.28-19 186.93-16.65 186.93-13.65L186.93-13.65Q186.93-10.7 188.28-8.33 189.63-5.95 191.93-4.6 194.23-3.25 197.08-3.25ZM209.03 0L209.03 0Q208.18 0 207.63-0.53 207.08-1.05 207.08-1.9L207.08-1.9 207.08-10.45 208.03-14.4 210.98-13.65 210.98-1.9Q210.98-1.05 210.43-0.53 209.88 0 209.03 0ZM228.03 0.25L228.03 0.25Q225.08 0.25 222.18-0.75 219.28-1.75 217.48-3.75L217.48-3.75Q216.93-4.35 217.03-5.1 217.13-5.85 217.78-6.4L217.78-6.4Q218.48-6.9 219.23-6.8 219.98-6.7 220.48-6.15L220.48-6.15Q221.68-4.75 223.66-4 225.63-3.25 228.03-3.25L228.03-3.25Q231.73-3.25 233.38-4.53 235.03-5.8 235.08-7.6L235.08-7.6Q235.08-9.4 233.38-10.58 231.68-11.75 227.78-12.4L227.78-12.4Q222.73-13.2 220.38-15.2 218.03-17.2 218.03-19.95L218.03-19.95Q218.03-22.5 219.38-24.2 220.73-25.9 222.98-26.75 225.23-27.6 227.93-27.6L227.93-27.6Q231.28-27.6 233.7-26.45 236.13-25.3 237.63-23.35L237.63-23.35Q238.13-22.7 238.03-22 237.93-21.3 237.23-20.85L237.23-20.85Q236.63-20.5 235.85-20.63 235.08-20.75 234.53-21.35L234.53-21.35Q233.28-22.8 231.63-23.48 229.98-24.15 227.83-24.15L227.83-24.15Q225.08-24.15 223.43-23.03 221.78-21.9 221.78-20.2L221.78-20.2Q221.78-19.05 222.41-18.2 223.03-17.35 224.55-16.7 226.08-16.05 228.83-15.6L228.83-15.6Q232.58-15 234.75-13.83 236.93-12.65 237.85-11.08 238.78-9.5 238.78-7.65L238.78-7.65Q238.78-5.3 237.41-3.53 236.03-1.75 233.6-0.75 231.18 0.25 228.03 0.25ZM257.83 0.25L257.83 0.25Q253.78 0.25 250.65-1.53 247.53-3.3 245.75-6.45 243.98-9.6 243.98-13.65L243.98-13.65Q243.98-17.75 245.65-20.88 247.33-24 250.28-25.8 253.23-27.6 257.08-27.6L257.08-27.6Q260.88-27.6 263.7-25.88 266.53-24.15 268.08-21.1 269.63-18.05 269.63-14.15L269.63-14.15Q269.63-13.35 269.13-12.88 268.63-12.4 267.83-12.4L267.83-12.4 246.58-12.4 246.58-15.6 268.23-15.6 266.08-14.05Q266.13-16.95 265.03-19.25 263.93-21.55 261.9-22.85 259.88-24.15 257.08-24.15L257.08-24.15Q254.23-24.15 252.08-22.8 249.93-21.45 248.75-19.07 247.58-16.7 247.58-13.65L247.58-13.65Q247.58-10.6 248.9-8.25 250.23-5.9 252.53-4.55 254.83-3.2 257.83-3.2L257.83-3.2Q259.63-3.2 261.45-3.83 263.28-4.45 264.38-5.4L264.38-5.4Q264.93-5.85 265.63-5.88 266.33-5.9 266.83-5.5L266.83-5.5Q267.48-4.9 267.5-4.2 267.53-3.5 266.93-3L266.93-3Q265.28-1.6 262.73-0.68 260.18 0.25 257.83 0.25ZM277.02 0.8L277.02 0.8Q275.82 0.8 274.98-0.05 274.13-0.9 274.13-2.1L274.13-2.1Q274.13-3.35 275-4.2 275.88-5.05 277.02-5.05L277.02-5.05Q278.23-5.05 279.07-4.17 279.93-3.3 279.93-2.1L279.93-2.1Q279.93-0.95 279.1-0.08 278.27 0.8 277.02 0.8Z" opacity="1" transform="matrix(1,0,0,1,0,0)" fill="#51e83c" class="wordmark-text-0" data-fill-palette-color="primary" id="text-0"></path></svg></g></svg></g></svg></g></svg></g></svg></g><defs></defs></svg><rect width="395.52" height="56.502857142857145" fill="none" stroke="none" visibility="hidden"></rect></g></svg></g></svg>